<mxfile host="Electron" modified="2025-05-15T10:22:10.264Z" agent="Mozilla/5.0 (Windows NT 10.0; Win64; x64) AppleWebKit/537.36 (KHTML, like Gecko) draw.io/24.0.4 Chrome/120.0.6099.109 Electron/28.1.0 Safari/537.36" etag="D8nJDsRFOC-RgujCgBeL" version="24.0.4" type="device">
  <diagram name="第 1 页" id="mxq4TBprBlyjqkpHflmD">
    <mxGraphModel dx="1185" dy="688" grid="1" gridSize="10" guides="1" tooltips="1" connect="1" arrows="1" fold="1" page="1" pageScale="1" pageWidth="827" pageHeight="1169" math="0" shadow="0">
      <root>
        <mxCell id="0" />
        <mxCell id="1" parent="0" />
        <mxCell id="mA-yETejkcplVEVs_X01-1" value="" style="group" vertex="1" connectable="0" parent="1">
          <mxGeometry x="110" y="35" width="190" height="192" as="geometry" />
        </mxCell>
        <mxCell id="mA-yETejkcplVEVs_X01-2" value="&lt;div&gt;&lt;span style=&quot;background-color: initial;&quot;&gt;&amp;nbsp; &lt;br&gt;&amp;nbsp; &amp;nbsp;MiniListItem_t&lt;/span&gt;&lt;br&gt;&lt;/div&gt;&lt;div&gt;&lt;br&gt;&lt;/div&gt;" style="rounded=0;whiteSpace=wrap;html=1;align=left;container=0;" vertex="1" parent="mA-yETejkcplVEVs_X01-1">
          <mxGeometry y="22" width="190" height="170" as="geometry" />
        </mxCell>
        <mxCell id="mA-yETejkcplVEVs_X01-3" value="&lt;span style=&quot;text-align: left;&quot;&gt;xLIST&lt;/span&gt;" style="text;html=1;align=center;verticalAlign=middle;whiteSpace=wrap;rounded=0;container=0;" vertex="1" parent="mA-yETejkcplVEVs_X01-1">
          <mxGeometry x="63" width="60" height="30" as="geometry" />
        </mxCell>
        <mxCell id="mA-yETejkcplVEVs_X01-4" value="&lt;span style=&quot;text-align: left;&quot;&gt;uxNumerOfItems = 0&lt;/span&gt;" style="rounded=0;whiteSpace=wrap;html=1;container=0;" vertex="1" parent="mA-yETejkcplVEVs_X01-1">
          <mxGeometry x="35" y="30" width="120" height="22" as="geometry" />
        </mxCell>
        <mxCell id="mA-yETejkcplVEVs_X01-5" value="&lt;span style=&quot;text-align: left;&quot;&gt;* pxIntex&lt;/span&gt;" style="rounded=0;whiteSpace=wrap;html=1;container=0;" vertex="1" parent="mA-yETejkcplVEVs_X01-1">
          <mxGeometry x="35" y="62" width="120" height="20" as="geometry" />
        </mxCell>
        <mxCell id="mA-yETejkcplVEVs_X01-6" value="" style="endArrow=classic;html=1;rounded=0;exitX=0.75;exitY=1;exitDx=0;exitDy=0;entryX=0.75;entryY=0;entryDx=0;entryDy=0;endSize=2;" edge="1" parent="mA-yETejkcplVEVs_X01-1" source="mA-yETejkcplVEVs_X01-5" target="mA-yETejkcplVEVs_X01-7">
          <mxGeometry width="50" height="50" relative="1" as="geometry">
            <mxPoint x="170" y="122" as="sourcePoint" />
            <mxPoint x="220" y="72" as="targetPoint" />
          </mxGeometry>
        </mxCell>
        <mxCell id="mA-yETejkcplVEVs_X01-7" value="&lt;font style=&quot;font-size: 8px;&quot;&gt;xItemValue=portMAX_DELAY&amp;nbsp;&lt;/font&gt;" style="rounded=0;whiteSpace=wrap;html=1;container=0;" vertex="1" parent="mA-yETejkcplVEVs_X01-1">
          <mxGeometry x="35" y="115.83870967741936" width="120" height="18.387096774193548" as="geometry" />
        </mxCell>
        <mxCell id="mA-yETejkcplVEVs_X01-8" value="*&amp;nbsp; pxNext" style="rounded=0;whiteSpace=wrap;html=1;container=0;" vertex="1" parent="mA-yETejkcplVEVs_X01-1">
          <mxGeometry x="35" y="132.38709677419354" width="120" height="18.387096774193548" as="geometry" />
        </mxCell>
        <mxCell id="mA-yETejkcplVEVs_X01-9" value="*&amp;nbsp; pxPrevious" style="rounded=0;whiteSpace=wrap;html=1;container=0;" vertex="1" parent="mA-yETejkcplVEVs_X01-1">
          <mxGeometry x="35" y="150.7741935483871" width="120" height="18.387096774193548" as="geometry" />
        </mxCell>
        <mxCell id="mA-yETejkcplVEVs_X01-10" value="" style="curved=1;endArrow=classic;html=1;rounded=0;exitX=1;exitY=0.5;exitDx=0;exitDy=0;entryX=0.902;entryY=-0.011;entryDx=0;entryDy=0;entryPerimeter=0;endSize=2;" edge="1" parent="mA-yETejkcplVEVs_X01-1" source="mA-yETejkcplVEVs_X01-8" target="mA-yETejkcplVEVs_X01-7">
          <mxGeometry width="50" height="50" relative="1" as="geometry">
            <mxPoint x="160" y="140.66129032258064" as="sourcePoint" />
            <mxPoint x="140" y="113.0806451612903" as="targetPoint" />
            <Array as="points">
              <mxPoint x="170" y="140.66129032258064" />
              <mxPoint x="180" y="122.2741935483871" />
              <mxPoint x="160" y="103.88709677419354" />
            </Array>
          </mxGeometry>
        </mxCell>
        <mxCell id="mA-yETejkcplVEVs_X01-11" value="" style="curved=1;endArrow=classic;html=1;rounded=0;entryX=0.25;entryY=1;entryDx=0;entryDy=0;exitX=0;exitY=0.5;exitDx=0;exitDy=0;endSize=2;" edge="1" parent="mA-yETejkcplVEVs_X01-1" source="mA-yETejkcplVEVs_X01-9" target="mA-yETejkcplVEVs_X01-9">
          <mxGeometry width="50" height="50" relative="1" as="geometry">
            <mxPoint x="10" y="177.43548387096774" as="sourcePoint" />
            <mxPoint x="60" y="131.46774193548387" as="targetPoint" />
            <Array as="points">
              <mxPoint x="30" y="159.0483870967742" />
              <mxPoint x="30" y="177.43548387096774" />
              <mxPoint x="60" y="177.43548387096774" />
            </Array>
          </mxGeometry>
        </mxCell>
        <mxCell id="mA-yETejkcplVEVs_X01-12" value="" style="group;strokeColor=#EA6B66;container=0;" vertex="1" connectable="0" parent="mA-yETejkcplVEVs_X01-1">
          <mxGeometry x="35" y="115.97" width="120" height="54.03" as="geometry" />
        </mxCell>
        <mxCell id="mA-yETejkcplVEVs_X01-13" value="" style="rounded=0;whiteSpace=wrap;html=1;strokeColor=#EA6B66;" vertex="1" parent="1">
          <mxGeometry x="630" y="90" width="150" height="147" as="geometry" />
        </mxCell>
        <mxCell id="mA-yETejkcplVEVs_X01-14" value="xLIST_ITEM" style="text;html=1;align=center;verticalAlign=middle;whiteSpace=wrap;rounded=0;" vertex="1" parent="1">
          <mxGeometry x="642" y="65" width="60" height="30" as="geometry" />
        </mxCell>
        <mxCell id="mA-yETejkcplVEVs_X01-15" value="* pvOwner" style="rounded=0;whiteSpace=wrap;html=1;" vertex="1" parent="1">
          <mxGeometry x="642" y="177" width="108" height="20" as="geometry" />
        </mxCell>
        <mxCell id="mA-yETejkcplVEVs_X01-16" value="*&amp;nbsp; pvContainer" style="rounded=0;whiteSpace=wrap;html=1;" vertex="1" parent="1">
          <mxGeometry x="642" y="207" width="108" height="20" as="geometry" />
        </mxCell>
        <mxCell id="mA-yETejkcplVEVs_X01-17" value="" style="group" vertex="1" connectable="0" parent="1">
          <mxGeometry x="642" y="127" width="108" height="40" as="geometry" />
        </mxCell>
        <mxCell id="mA-yETejkcplVEVs_X01-18" value="*&amp;nbsp; pxNext" style="rounded=0;whiteSpace=wrap;html=1;" vertex="1" parent="mA-yETejkcplVEVs_X01-17">
          <mxGeometry width="108" height="20" as="geometry" />
        </mxCell>
        <mxCell id="mA-yETejkcplVEVs_X01-19" value="*&amp;nbsp; pxPrevious" style="rounded=0;whiteSpace=wrap;html=1;" vertex="1" parent="mA-yETejkcplVEVs_X01-17">
          <mxGeometry y="20" width="108" height="20" as="geometry" />
        </mxCell>
        <mxCell id="mA-yETejkcplVEVs_X01-20" value="xItemValue=1" style="rounded=0;whiteSpace=wrap;html=1;" vertex="1" parent="1">
          <mxGeometry x="642" y="97" width="108" height="20" as="geometry" />
        </mxCell>
        <mxCell id="mA-yETejkcplVEVs_X01-21" value="" style="endArrow=classic;html=1;rounded=0;exitX=0;exitY=0.5;exitDx=0;exitDy=0;entryX=0.737;entryY=1.001;entryDx=0;entryDy=0;entryPerimeter=0;endSize=2;" edge="1" parent="1" source="mA-yETejkcplVEVs_X01-16" target="mA-yETejkcplVEVs_X01-23">
          <mxGeometry width="50" height="50" relative="1" as="geometry">
            <mxPoint x="640" y="222" as="sourcePoint" />
            <mxPoint x="690" y="172" as="targetPoint" />
            <Array as="points">
              <mxPoint x="560" y="217" />
            </Array>
          </mxGeometry>
        </mxCell>
        <mxCell id="mA-yETejkcplVEVs_X01-22" value="" style="endArrow=classic;html=1;rounded=0;exitX=1;exitY=0.5;exitDx=0;exitDy=0;endSize=2;" edge="1" parent="1" source="mA-yETejkcplVEVs_X01-15">
          <mxGeometry width="50" height="50" relative="1" as="geometry">
            <mxPoint x="750" y="192" as="sourcePoint" />
            <mxPoint x="770" y="187" as="targetPoint" />
          </mxGeometry>
        </mxCell>
        <mxCell id="mA-yETejkcplVEVs_X01-23" value="&lt;div&gt;&lt;span style=&quot;background-color: initial;&quot;&gt;&amp;nbsp; &lt;br&gt;&amp;nbsp; &amp;nbsp;MiniListItem_t&lt;/span&gt;&lt;br&gt;&lt;/div&gt;&lt;div&gt;&lt;br&gt;&lt;/div&gt;" style="rounded=0;whiteSpace=wrap;html=1;align=left;container=0;" vertex="1" parent="1">
          <mxGeometry x="420" y="32" width="190" height="170" as="geometry" />
        </mxCell>
        <mxCell id="mA-yETejkcplVEVs_X01-24" value="&lt;span style=&quot;text-align: left;&quot;&gt;xLIST&lt;/span&gt;" style="text;html=1;align=center;verticalAlign=middle;whiteSpace=wrap;rounded=0;container=0;" vertex="1" parent="1">
          <mxGeometry x="483" y="10" width="60" height="30" as="geometry" />
        </mxCell>
        <mxCell id="mA-yETejkcplVEVs_X01-25" value="&lt;span style=&quot;text-align: left;&quot;&gt;uxNumerOfItems = 1&lt;/span&gt;" style="rounded=0;whiteSpace=wrap;html=1;container=0;" vertex="1" parent="1">
          <mxGeometry x="455" y="40" width="120" height="22" as="geometry" />
        </mxCell>
        <mxCell id="mA-yETejkcplVEVs_X01-26" value="&lt;span style=&quot;text-align: left;&quot;&gt;* pxIntex&lt;/span&gt;" style="rounded=0;whiteSpace=wrap;html=1;container=0;" vertex="1" parent="1">
          <mxGeometry x="455" y="72" width="120" height="20" as="geometry" />
        </mxCell>
        <mxCell id="mA-yETejkcplVEVs_X01-27" value="" style="endArrow=classic;html=1;rounded=0;exitX=0.75;exitY=1;exitDx=0;exitDy=0;entryX=0.75;entryY=0;entryDx=0;entryDy=0;endSize=2;" edge="1" parent="1" source="mA-yETejkcplVEVs_X01-26" target="mA-yETejkcplVEVs_X01-28">
          <mxGeometry width="50" height="50" relative="1" as="geometry">
            <mxPoint x="590" y="132" as="sourcePoint" />
            <mxPoint x="640" y="82" as="targetPoint" />
          </mxGeometry>
        </mxCell>
        <mxCell id="mA-yETejkcplVEVs_X01-28" value="&lt;font style=&quot;font-size: 8px;&quot;&gt;xItemValue=portMAX_DELAY&lt;/font&gt;" style="rounded=0;whiteSpace=wrap;html=1;container=0;" vertex="1" parent="1">
          <mxGeometry x="455" y="125" width="120" height="20" as="geometry" />
        </mxCell>
        <mxCell id="mA-yETejkcplVEVs_X01-29" value="*&amp;nbsp; pxNext" style="rounded=0;whiteSpace=wrap;html=1;container=0;" vertex="1" parent="1">
          <mxGeometry x="455" y="143" width="120" height="20" as="geometry" />
        </mxCell>
        <mxCell id="mA-yETejkcplVEVs_X01-30" value="*&amp;nbsp; pxPrevious" style="rounded=0;whiteSpace=wrap;html=1;container=0;" vertex="1" parent="1">
          <mxGeometry x="455" y="163" width="120" height="20" as="geometry" />
        </mxCell>
        <mxCell id="mA-yETejkcplVEVs_X01-31" value="" style="rounded=0;whiteSpace=wrap;html=1;strokeColor=#EA6B66;align=left;verticalAlign=middle;fontFamily=Helvetica;fontSize=12;fontColor=default;fillColor=none;movable=1;resizable=1;rotatable=1;deletable=1;editable=1;locked=0;connectable=1;" vertex="1" parent="1">
          <mxGeometry x="455" y="124" width="120" height="60" as="geometry" />
        </mxCell>
        <mxCell id="mA-yETejkcplVEVs_X01-32" value="" style="endArrow=classic;html=1;rounded=0;exitX=0.008;exitY=0.387;exitDx=0;exitDy=0;entryX=1;entryY=0.5;entryDx=0;entryDy=0;endSize=2;exitPerimeter=0;" edge="1" parent="1" source="mA-yETejkcplVEVs_X01-18" target="mA-yETejkcplVEVs_X01-28">
          <mxGeometry width="50" height="50" relative="1" as="geometry">
            <mxPoint x="586" y="135.5" as="sourcePoint" />
            <mxPoint x="642" y="134.5" as="targetPoint" />
          </mxGeometry>
        </mxCell>
        <mxCell id="mA-yETejkcplVEVs_X01-33" value="" style="endArrow=classic;html=1;rounded=0;exitX=1;exitY=0.5;exitDx=0;exitDy=0;entryX=0.005;entryY=0.424;entryDx=0;entryDy=0;entryPerimeter=0;endSize=2;" edge="1" parent="1" source="mA-yETejkcplVEVs_X01-29" target="mA-yETejkcplVEVs_X01-13">
          <mxGeometry width="50" height="50" relative="1" as="geometry">
            <mxPoint x="570" y="162" as="sourcePoint" />
            <mxPoint x="620" y="112" as="targetPoint" />
          </mxGeometry>
        </mxCell>
        <mxCell id="mA-yETejkcplVEVs_X01-34" value="" style="endArrow=classic;html=1;rounded=0;exitX=0.292;exitY=1.007;exitDx=0;exitDy=0;entryX=0.5;entryY=1;entryDx=0;entryDy=0;exitPerimeter=0;endSize=2;" edge="1" parent="1" source="mA-yETejkcplVEVs_X01-30" target="mA-yETejkcplVEVs_X01-13">
          <mxGeometry width="50" height="50" relative="1" as="geometry">
            <mxPoint x="510" y="272" as="sourcePoint" />
            <mxPoint x="560" y="222" as="targetPoint" />
            <Array as="points">
              <mxPoint x="490" y="252" />
              <mxPoint x="705" y="252" />
            </Array>
          </mxGeometry>
        </mxCell>
        <mxCell id="mA-yETejkcplVEVs_X01-39" value="" style="rounded=0;whiteSpace=wrap;html=1;" vertex="1" parent="1">
          <mxGeometry x="40" y="280" width="180" height="190" as="geometry" />
        </mxCell>
        <mxCell id="mA-yETejkcplVEVs_X01-40" value="&lt;pre style=&quot;box-sizing: border-box; font-family: SFMono-Regular, Menlo, Monaco, Consolas, &amp;quot;Liberation Mono&amp;quot;, &amp;quot;Courier New&amp;quot;, Courier, monospace; line-height: 1.4; margin-top: 0px; margin-bottom: 0px; padding: 12px; overflow: auto; color: rgb(64, 64, 64); text-align: start;&quot;&gt;&lt;span style=&quot;box-sizing: border-box;&quot; class=&quot;n&quot;&gt;tskTCB&lt;/span&gt;&lt;/pre&gt;" style="text;html=1;align=center;verticalAlign=middle;whiteSpace=wrap;rounded=0;" vertex="1" parent="1">
          <mxGeometry x="50" y="250" width="60" height="30" as="geometry" />
        </mxCell>
        <mxCell id="mA-yETejkcplVEVs_X01-41" value="&lt;pre style=&quot;box-sizing: border-box; font-family: SFMono-Regular, Menlo, Monaco, Consolas, &amp;quot;Liberation Mono&amp;quot;, &amp;quot;Courier New&amp;quot;, Courier, monospace; line-height: 1.4; margin-top: 0px; margin-bottom: 0px; padding: 12px; overflow: auto; color: rgb(64, 64, 64); text-align: start;&quot;&gt;&lt;span style=&quot;box-sizing: border-box; color: rgb(102, 102, 102);&quot; class=&quot;o&quot;&gt;*&lt;/span&gt;&lt;span style=&quot;box-sizing: border-box;&quot; class=&quot;n&quot;&gt;pxTopOfStack&lt;/span&gt;&lt;/pre&gt;" style="rounded=0;whiteSpace=wrap;html=1;" vertex="1" parent="1">
          <mxGeometry x="60" y="290" width="120" height="30" as="geometry" />
        </mxCell>
        <mxCell id="mA-yETejkcplVEVs_X01-42" value="&lt;pre style=&quot;box-sizing: border-box; font-family: SFMono-Regular, Menlo, Monaco, Consolas, &amp;quot;Liberation Mono&amp;quot;, &amp;quot;Courier New&amp;quot;, Courier, monospace; line-height: 1.4; margin-top: 0px; margin-bottom: 0px; padding: 12px; overflow: auto; color: rgb(64, 64, 64); text-align: start;&quot;&gt;&lt;pre style=&quot;box-sizing: border-box; font-family: SFMono-Regular, Menlo, Monaco, Consolas, &amp;quot;Liberation Mono&amp;quot;, &amp;quot;Courier New&amp;quot;, Courier, monospace; line-height: 1.4; margin-top: 0px; margin-bottom: 0px; padding: 12px; overflow: auto;&quot;&gt;&lt;span style=&quot;box-sizing: border-box;&quot; class=&quot;n&quot;&gt;xStateListItem&lt;/span&gt;&lt;/pre&gt;&lt;/pre&gt;" style="rounded=0;whiteSpace=wrap;html=1;" vertex="1" parent="1">
          <mxGeometry x="60" y="330" width="120" height="30" as="geometry" />
        </mxCell>
        <mxCell id="mA-yETejkcplVEVs_X01-43" value="&lt;pre style=&quot;box-sizing: border-box; font-family: SFMono-Regular, Menlo, Monaco, Consolas, &amp;quot;Liberation Mono&amp;quot;, &amp;quot;Courier New&amp;quot;, Courier, monospace; line-height: 1.4; margin-top: 0px; margin-bottom: 0px; padding: 12px; overflow: auto; color: rgb(64, 64, 64); text-align: start;&quot;&gt;&lt;pre style=&quot;box-sizing: border-box; font-family: SFMono-Regular, Menlo, Monaco, Consolas, &amp;quot;Liberation Mono&amp;quot;, &amp;quot;Courier New&amp;quot;, Courier, monospace; line-height: 1.4; margin-top: 0px; margin-bottom: 0px; padding: 12px; overflow: auto;&quot;&gt;&lt;span style=&quot;box-sizing: border-box; color: rgb(102, 102, 102);&quot; class=&quot;o&quot;&gt;*&lt;/span&gt;&lt;span style=&quot;box-sizing: border-box;&quot; class=&quot;n&quot;&gt;pxStack&lt;/span&gt;&lt;/pre&gt;&lt;/pre&gt;" style="rounded=0;whiteSpace=wrap;html=1;" vertex="1" parent="1">
          <mxGeometry x="60" y="370" width="120" height="30" as="geometry" />
        </mxCell>
        <mxCell id="mA-yETejkcplVEVs_X01-44" value="&lt;pre style=&quot;box-sizing: border-box; font-family: SFMono-Regular, Menlo, Monaco, Consolas, &amp;quot;Liberation Mono&amp;quot;, &amp;quot;Courier New&amp;quot;, Courier, monospace; line-height: 1.4; margin-top: 0px; margin-bottom: 0px; padding: 12px; overflow: auto; color: rgb(64, 64, 64); text-align: start;&quot;&gt;&lt;pre style=&quot;box-sizing: border-box; font-family: SFMono-Regular, Menlo, Monaco, Consolas, &amp;quot;Liberation Mono&amp;quot;, &amp;quot;Courier New&amp;quot;, Courier, monospace; line-height: 1.4; margin-top: 0px; margin-bottom: 0px; padding: 12px; overflow: auto;&quot;&gt;&lt;span style=&quot;box-sizing: border-box;&quot; class=&quot;n&quot;&gt;pcTaskName&lt;/span&gt;&lt;/pre&gt;&lt;/pre&gt;" style="rounded=0;whiteSpace=wrap;html=1;" vertex="1" parent="1">
          <mxGeometry x="60" y="410" width="120" height="30" as="geometry" />
        </mxCell>
      </root>
    </mxGraphModel>
  </diagram>
</mxfile>
